<svg xmlns="http://www.w3.org/2000/svg" viewBox="0 0 101.13 168.22"><defs><style>.cls-1{fill:#fff;stroke:#fff;stroke-width:0.5px;}</style></defs><g id="Layer_2" data-name="Layer 2"><g id="Layer_1-2" data-name="Layer 1"><g id="down-arrow"><path id="Path_57" data-name="Path 57" class="cls-1" d="M2.2,166.26a5.49,5.49,0,0,1-.65-7.74,4.91,4.91,0,0,1,.65-.64L85,84.23,2.2,10.37a5.49,5.49,0,0,1-.65-7.74A5,5,0,0,1,2.2,2a7.23,7.23,0,0,1,9.39,0L98.87,79.89a5.47,5.47,0,0,1,2,4.2,5.7,5.7,0,0,1-2,4.18L11.59,166.12A7.07,7.07,0,0,1,2.2,166.26Z"/></g></g></g></svg>